<?xml version="1.0" encoding="UTF-8" standalone="no"?>
<!DOCTYPE svg PUBLIC "-//W3C//DTD SVG 1.1//EN"
 "http://www.w3.org/Graphics/SVG/1.1/DTD/svg11.dtd">
<!-- Generated by graphviz version 2.49.0 (20210828.1703)
 -->
<!-- Title: Database Structure Pages: 1 -->
<svg width="435pt" height="330pt"
 viewBox="0.00 0.00 435.00 329.90" xmlns="http://www.w3.org/2000/svg" xmlns:xlink="http://www.w3.org/1999/xlink">
<g id="graph0" class="graph" transform="scale(1 1) rotate(0) translate(4 325.9)">
<title>Database Structure</title>
<polygon fill="white" stroke="transparent" points="-4,4 -4,-325.9 431,-325.9 431,4 -4,4"/>
<text text-anchor="middle" x="213.5" y="-306.7" font-family="Helvetica,sans-Serif" font-size="14.00">ER Diagram: COP4331</text>
<!-- Contacts -->
<g id="node1" class="node">
<title>Contacts</title>
<polygon fill="#dddddd" stroke="transparent" points="8,-228.52 8,-249.52 148,-249.52 148,-228.52 8,-228.52"/>
<polygon fill="none" stroke="black" points="8,-228.52 8,-249.52 148,-249.52 148,-228.52 8,-228.52"/>
<text text-anchor="start" x="53.5" y="-235.32" font-family="Times,serif" font-size="14.00">Contacts</text>
<polygon fill="none" stroke="black" points="8,-207.52 8,-228.52 148,-228.52 148,-207.52 8,-207.52"/>
<text text-anchor="start" x="62" y="-215.32" font-family="Times,serif" font-size="14.00">id:</text>
<text text-anchor="start" x="77" y="-215.32" font-family="Helvetica,sans-Serif" font-style="oblique" font-size="10.00">INT</text>
<polygon fill="none" stroke="black" points="8,-186.52 8,-207.52 148,-207.52 148,-186.52 8,-186.52"/>
<text text-anchor="start" x="43" y="-194.32" font-family="Times,serif" font-size="14.00">User_ID:</text>
<text text-anchor="start" x="96" y="-194.32" font-family="Helvetica,sans-Serif" font-style="oblique" font-size="10.00">INT</text>
<polygon fill="none" stroke="black" points="8,-165.52 8,-186.52 148,-186.52 148,-165.52 8,-165.52"/>
<text text-anchor="start" x="16" y="-173.32" font-family="Times,serif" font-size="14.00">DateCreated:</text>
<text text-anchor="start" x="90" y="-173.32" font-family="Helvetica,sans-Serif" font-style="oblique" font-size="10.00">DATETIME</text>
<polygon fill="none" stroke="black" points="8,-144.52 8,-165.52 148,-165.52 148,-144.52 8,-144.52"/>
<text text-anchor="start" x="22" y="-152.32" font-family="Times,serif" font-size="14.00">FirstName:</text>
<text text-anchor="start" x="85" y="-152.32" font-family="Helvetica,sans-Serif" font-style="oblique" font-size="10.00">VARCHAR</text>
<polygon fill="none" stroke="black" points="8,-123.52 8,-144.52 148,-144.52 148,-123.52 8,-123.52"/>
<text text-anchor="start" x="22.5" y="-131.32" font-family="Times,serif" font-size="14.00">LastName:</text>
<text text-anchor="start" x="84.5" y="-131.32" font-family="Helvetica,sans-Serif" font-style="oblique" font-size="10.00">VARCHAR</text>
<polygon fill="none" stroke="black" points="8,-102.52 8,-123.52 148,-123.52 148,-102.52 8,-102.52"/>
<text text-anchor="start" x="34.5" y="-110.32" font-family="Times,serif" font-size="14.00">Email:</text>
<text text-anchor="start" x="72.5" y="-110.32" font-family="Helvetica,sans-Serif" font-style="oblique" font-size="10.00">VARCHAR</text>
<polygon fill="none" stroke="black" points="8,-81.52 8,-102.52 148,-102.52 148,-81.52 8,-81.52"/>
<text text-anchor="start" x="11" y="-89.32" font-family="Times,serif" font-size="14.00">PhoneNumber:</text>
<text text-anchor="start" x="96" y="-89.32" font-family="Helvetica,sans-Serif" font-style="oblique" font-size="10.00">VARCHAR</text>
</g>
<!-- Users -->
<g id="node2" class="node">
<title>Users</title>
<polygon fill="#dddddd" stroke="transparent" points="254,-196.52 254,-217.52 419,-217.52 419,-196.52 254,-196.52"/>
<polygon fill="none" stroke="black" points="254,-196.52 254,-217.52 419,-217.52 419,-196.52 254,-196.52"/>
<text text-anchor="start" x="320.5" y="-203.32" font-family="Times,serif" font-size="14.00">Users</text>
<polygon fill="none" stroke="black" points="254,-175.52 254,-196.52 419,-196.52 419,-175.52 254,-175.52"/>
<text text-anchor="start" x="318.5" y="-183.32" font-family="Times,serif" font-size="14.00">ID:</text>
<text text-anchor="start" x="337.5" y="-183.32" font-family="Helvetica,sans-Serif" font-style="oblique" font-size="10.00">INT</text>
<polygon fill="none" stroke="black" points="254,-154.52 254,-175.52 419,-175.52 419,-154.52 254,-154.52"/>
<text text-anchor="start" x="274.5" y="-162.32" font-family="Times,serif" font-size="14.00">DateCreated:</text>
<text text-anchor="start" x="348.5" y="-162.32" font-family="Helvetica,sans-Serif" font-style="oblique" font-size="10.00">DATETIME</text>
<polygon fill="none" stroke="black" points="254,-133.52 254,-154.52 419,-154.52 419,-133.52 254,-133.52"/>
<text text-anchor="start" x="257" y="-141.32" font-family="Times,serif" font-size="14.00">DateLastLoggedIn:</text>
<text text-anchor="start" x="366" y="-141.32" font-family="Helvetica,sans-Serif" font-style="oblique" font-size="10.00">DATETIME</text>
<polygon fill="none" stroke="black" points="254,-112.52 254,-133.52 419,-133.52 419,-112.52 254,-112.52"/>
<text text-anchor="start" x="280.5" y="-120.32" font-family="Times,serif" font-size="14.00">FirstName:</text>
<text text-anchor="start" x="343.5" y="-120.32" font-family="Helvetica,sans-Serif" font-style="oblique" font-size="10.00">VARCHAR</text>
<polygon fill="none" stroke="black" points="254,-91.52 254,-112.52 419,-112.52 419,-91.52 254,-91.52"/>
<text text-anchor="start" x="281" y="-99.32" font-family="Times,serif" font-size="14.00">LastName:</text>
<text text-anchor="start" x="343" y="-99.32" font-family="Helvetica,sans-Serif" font-style="oblique" font-size="10.00">VARCHAR</text>
<polygon fill="none" stroke="black" points="254,-70.52 254,-91.52 419,-91.52 419,-70.52 254,-70.52"/>
<text text-anchor="start" x="293" y="-78.32" font-family="Times,serif" font-size="14.00">Login:</text>
<text text-anchor="start" x="331" y="-78.32" font-family="Helvetica,sans-Serif" font-style="oblique" font-size="10.00">VARCHAR</text>
<polygon fill="none" stroke="black" points="254,-49.52 254,-70.52 419,-70.52 419,-49.52 254,-49.52"/>
<text text-anchor="start" x="283" y="-57.32" font-family="Times,serif" font-size="14.00">Password:</text>
<text text-anchor="start" x="341" y="-57.32" font-family="Helvetica,sans-Serif" font-style="oblique" font-size="10.00">VARCHAR</text>
</g>
<!-- Contacts&#45;&gt;Users -->
<g id="edge1" class="edge">
<title>Contacts:User_ID&#45;&gt;Users:id</title>
<path fill="none" stroke="#444444" stroke-dasharray="5,2" d="M149,-197.52C191.85,-197.52 204.58,-188.17 242.72,-186.71"/>
<polygon fill="#444444" stroke="#444444" points="253.07,-190.02 243,-186.7 252.93,-183.02 253.07,-190.02"/>
</g>
</g>
</svg>
